<svg class="generator__canvas" viewBox="0 0 200 200" xmlns="http://www.w3.org/2000/svg" version="1.1" xmlns:xlink="http://www.w3.org/1999/xlink" xmlns:svgjs="http://svgjs.com/svgjs"><circle r="5" cx="5" cy="5" fill="#1a1a1a" transform="matrix(0.40573389016832895,0,0,0.40573389016832895,2.9713305491583553,2.9713305491583553)"></circle><circle r="5" cx="5" cy="15" fill="#1a1a1a" transform="matrix(0.34550327686894144,0,0,0.34550327686894144,3.2724836156552928,9.817450846965878)"></circle><circle r="5" cx="5" cy="25" fill="#1a1a1a" transform="matrix(0.30877132108107874,0,0,0.30877132108107874,3.4561433945946063,17.280715654558954)"></circle><circle r="5" cx="5" cy="35" fill="#1a1a1a" transform="matrix(0.28797515454332423,0,0,0.28797515454332423,3.560124227283379,24.920869590983653)"></circle><circle r="5" cx="5" cy="45" fill="#1a1a1a" transform="matrix(0.2780237923690735,0,0,0.2780237923690735,3.6098810381546325,32.48892934339169)"></circle><circle r="5" cx="5" cy="55" fill="#1a1a1a" transform="matrix(0.2773953604173717,0,0,0.2773953604173717,3.6130231979131415,39.743257933562504)"></circle><circle r="5" cx="5" cy="65" fill="#1a1a1a" transform="matrix(0.28163934846729316,0,0,0.28163934846729316,3.591803257663534,46.69344234962594)"></circle><circle r="5" cx="5" cy="75" fill="#1a1a1a" transform="matrix(0.2856274202090753,0,0,0.2856274202090753,3.5718628989546235,53.577943484319356)"></circle><circle r="5" cx="5" cy="85" fill="#1a1a1a" transform="matrix(0.2839126721127004,0,0,0.2839126721127004,3.580436639436498,60.86742287042047)"></circle><circle r="5" cx="5" cy="95" fill="#1a1a1a" transform="matrix(0.2730771717174466,0,0,0.2730771717174466,3.634614141412767,69.05766868684258)"></circle><circle r="5" cx="5" cy="105" fill="#1a1a1a" transform="matrix(0.25731254569418677,0,0,0.25731254569418677,3.713437271529066,77.98218270211039)"></circle><circle r="5" cx="5" cy="115" fill="#1a1a1a" transform="matrix(0.24662709734230348,0,0,0.24662709734230348,3.766864513288483,86.6378838056351)"></circle><circle r="5" cx="5" cy="125" fill="#1a1a1a" transform="matrix(0.25092323164327734,0,0,0.25092323164327734,3.7453838417836134,93.63459604459032)"></circle><circle r="5" cx="5" cy="135" fill="#1a1a1a" transform="matrix(0.27430732790948836,0,0,0.27430732790948836,3.6284633604525585,97.96851073221907)"></circle><circle r="5" cx="5" cy="145" fill="#1a1a1a" transform="matrix(0.30887687802126185,0,0,0.30887687802126185,3.455615609893691,100.21285268691703)"></circle><circle r="5" cx="5" cy="155" fill="#1a1a1a" transform="matrix(0.3322240244943271,0,0,0.3322240244943271,3.3388798775283646,103.50527620337931)"></circle><circle r="5" cx="5" cy="165" fill="#1a1a1a" transform="matrix(0.3270597703925376,0,0,0.3270597703925376,3.3647011480373124,111.03513788523131)"></circle><circle r="5" cx="5" cy="175" fill="#1a1a1a" transform="matrix(0.295843132542953,0,0,0.295843132542953,3.5207843372852348,123.22745180498322)"></circle><circle r="5" cx="5" cy="185" fill="#1a1a1a" transform="matrix(0.2580507770387771,0,0,0.2580507770387771,3.7097461148061144,137.26061756907293)"></circle><circle r="5" cx="5" cy="195" fill="#1a1a1a" transform="matrix(0.23933855154726852,0,0,0.23933855154726852,3.8033072422636574,148.32898244828263)"></circle><circle r="5" cx="15" cy="5" fill="#1a1a1a" transform="matrix(0.40505230835316,0,0,0.40505230835316,8.924215374702602,2.9747384582342002)"></circle><circle r="5" cx="15" cy="15" fill="#1a1a1a" transform="matrix(0.37626655018575755,0,0,0.37626655018575755,9.356001747213636,9.356001747213636)"></circle><circle r="5" cx="15" cy="25" fill="#1a1a1a" transform="matrix(0.36541673748216613,0,0,0.36541673748216613,9.518748937767509,15.864580352574329)"></circle><circle r="5" cx="15" cy="35" fill="#1a1a1a" transform="matrix(0.36052241185915057,0,0,0.36052241185915057,9.592163822112742,22.38171558492973)"></circle><circle r="5" cx="15" cy="45" fill="#1a1a1a" transform="matrix(0.3555259962688341,0,0,0.3555259962688341,9.667110055967488,29.001330167902466)"></circle><circle r="5" cx="15" cy="55" fill="#1a1a1a" transform="matrix(0.3482885182524366,0,0,0.3482885182524366,9.775672226213452,35.84413398219799)"></circle><circle r="5" cx="15" cy="65" fill="#1a1a1a" transform="matrix(0.33800799978303586,0,0,0.33800799978303586,9.929880003254462,43.029480014102674)"></circle><circle r="5" cx="15" cy="75" fill="#1a1a1a" transform="matrix(0.32560296479240985,0,0,0.32560296479240985,10.115955528113851,50.57977764056926)"></circle><circle r="5" cx="15" cy="85" fill="#1a1a1a" transform="matrix(0.31120245298656113,0,0,0.31120245298656113,10.331963205201582,58.5477914961423)"></circle><circle r="5" cx="15" cy="95" fill="#1a1a1a" transform="matrix(0.2926727998427014,0,0,0.2926727998427014,10.609908002359479,67.19608401494337)"></circle><circle r="5" cx="15" cy="105" fill="#1a1a1a" transform="matrix(0.270720505578979,0,0,0.270720505578979,10.939192416315315,76.57434691420721)"></circle><circle r="5" cx="15" cy="115" fill="#1a1a1a" transform="matrix(0.2535878375773719,0,0,0.2535878375773719,11.196182436339422,85.83739867860223)"></circle><circle r="5" cx="15" cy="125" fill="#1a1a1a" transform="matrix(0.25103400607461274,0,0,0.25103400607461274,11.234489908880809,93.6207492406734)"></circle><circle r="5" cx="15" cy="135" fill="#1a1a1a" transform="matrix(0.26649666838150615,0,0,0.26649666838150615,11.002549974277407,99.02294976849666)"></circle><circle r="5" cx="15" cy="145" fill="#1a1a1a" transform="matrix(0.29358632040286875,0,0,0.29358632040286875,10.596205193956969,102.42998354158402)"></circle><circle r="5" cx="15" cy="155" fill="#1a1a1a" transform="matrix(0.31234768016765035,0,0,0.31234768016765035,10.314784797485245,106.58610957401419)"></circle><circle r="5" cx="15" cy="165" fill="#1a1a1a" transform="matrix(0.30697372409074875,0,0,0.30697372409074875,10.395394138638768,114.34933552502645)"></circle><circle r="5" cx="15" cy="175" fill="#1a1a1a" transform="matrix(0.27976835346390255,0,0,0.27976835346390255,10.803474698041462,126.04053814381706)"></circle><circle r="5" cx="15" cy="185" fill="#1a1a1a" transform="matrix(0.24826293875308608,0,0,0.24826293875308608,11.276055918703708,139.07136780127632)"></circle><circle r="5" cx="15" cy="195" fill="#1a1a1a" transform="matrix(0.23508104212868508,0,0,0.23508104212868508,11.473784368069724,149.1591967849064)"></circle><circle r="5" cx="25" cy="5" fill="#1a1a1a" transform="matrix(0.3939462678868335,0,0,0.3939462678868335,15.151342146873406,3.0302686605658327)"></circle><circle r="5" cx="25" cy="15" fill="#1a1a1a" transform="matrix(0.4047757384454081,0,0,0.4047757384454081,14.880605403564616,8.928363923318878)"></circle><circle r="5" cx="25" cy="25" fill="#1a1a1a" transform="matrix(0.42710509481247655,0,0,0.42710509481247655,14.322371536977773,14.322371536977773)"></circle><circle r="5" cx="25" cy="35" fill="#1a1a1a" transform="matrix(0.4443847885899271,0,0,0.4443847885899271,13.89037922549991,19.446532399352552)"></circle><circle r="5" cx="25" cy="45" fill="#1a1a1a" transform="matrix(0.44887792670189547,0,0,0.44887792670189547,13.77805078127068,24.800493298414704)"></circle><circle r="5" cx="25" cy="55" fill="#1a1a1a" transform="matrix(0.43821302669358947,0,0,0.43821302669358947,14.044673261136648,30.89828567489981)"></circle><circle r="5" cx="25" cy="65" fill="#1a1a1a" transform="matrix(0.4155094379681895,0,0,0.4155094379681895,14.612262935967989,37.99188653206768)"></circle><circle r="5" cx="25" cy="75" fill="#1a1a1a" transform="matrix(0.3880545040376857,0,0,0.3880545040376857,15.298636231864451,45.89591219717357)"></circle><circle r="5" cx="25" cy="85" fill="#1a1a1a" transform="matrix(0.36272092154800745,0,0,0.36272092154800745,15.931975745786435,54.168721668419366)"></circle><circle r="5" cx="25" cy="95" fill="#1a1a1a" transform="matrix(0.3414342545614715,0,0,0.3414342545614715,16.464142379848738,62.56374581666021)"></circle><circle r="5" cx="25" cy="105" fill="#1a1a1a" transform="matrix(0.3223437931173987,0,0,0.3223437931173987,16.94140387953839,71.15390172267314)"></circle><circle r="5" cx="25" cy="115" fill="#1a1a1a" transform="matrix(0.3089686679727247,0,0,0.3089686679727247,17.275781982644215,79.46860318313665)"></circle><circle r="5" cx="25" cy="125" fill="#1a1a1a" transform="matrix(0.30656776966071503,0,0,0.30656776966071503,17.335804435865107,86.67902879241062)"></circle><circle r="5" cx="25" cy="135" fill="#1a1a1a" transform="matrix(0.31595199309703187,0,0,0.31595199309703187,17.101198867856173,92.3464809319007)"></circle><circle r="5" cx="25" cy="145" fill="#1a1a1a" transform="matrix(0.3333267043819661,0,0,0.3333267043819661,16.666831118872448,96.66762786461491)"></circle><circle r="5" cx="25" cy="155" fill="#1a1a1a" transform="matrix(0.34312599595085663,0,0,0.34312599595085663,16.42184884834085,101.81547062761723)"></circle><circle r="5" cx="25" cy="165" fill="#1a1a1a" transform="matrix(0.3316680137004736,0,0,0.3316680137004736,16.708298382746058,110.27477773942186)"></circle><circle r="5" cx="25" cy="175" fill="#1a1a1a" transform="matrix(0.30123329478365113,0,0,0.30123329478365113,17.469166297617,122.28417341286105)"></circle><circle r="5" cx="25" cy="185" fill="#1a1a1a" transform="matrix(0.26806850900255796,0,0,0.26806850900255796,18.298285878887523,135.407337002915)"></circle><circle r="5" cx="25" cy="195" fill="#1a1a1a" transform="matrix(0.2532570849806982,0,0,0.2532570849806982,18.668571451183468,145.61486842876386)"></circle><circle r="5" cx="35" cy="5" fill="#1a1a1a" transform="matrix(0.37209876883891346,0,0,0.37209876883891346,21.976543090638028,3.1395061558054325)"></circle><circle r="5" cx="35" cy="15" fill="#1a1a1a" transform="matrix(0.4202347069967525,0,0,0.4202347069967525,20.29178525511366,8.696479395048712)"></circle><circle r="5" cx="35" cy="25" fill="#1a1a1a" transform="matrix(0.47467625982724565,0,0,0.47467625982724565,18.386330906046403,13.133092502343342)"></circle><circle r="5" cx="35" cy="35" fill="#1a1a1a" transform="matrix(0.5156772596616249,0,0,0.5156772596616249,16.95129591184313,16.95129591184313)"></circle><circle r="5" cx="35" cy="45" fill="#1a1a1a" transform="matrix(0.5324767784749348,0,0,0.5324767784749348,16.363312753377283,21.038544968627935)"></circle><circle r="5" cx="35" cy="55" fill="#1a1a1a" transform="matrix(0.5226639938388451,0,0,0.5226639938388451,16.706760215640422,26.253482159755876)"></circle><circle r="5" cx="35" cy="65" fill="#1a1a1a" transform="matrix(0.4929901655241303,0,0,0.4929901655241303,17.74534420665544,32.95563924093153)"></circle><circle r="5" cx="35" cy="75" fill="#1a1a1a" transform="matrix(0.45655775835307816,0,0,0.45655775835307816,19.020478457642263,40.75816812351914)"></circle><circle r="5" cx="35" cy="85" fill="#1a1a1a" transform="matrix(0.42660929278144166,0,0,0.42660929278144166,20.068674752649542,48.73821011357746)"></circle><circle r="5" cx="35" cy="95" fill="#1a1a1a" transform="matrix(0.40948014367054364,0,0,0.40948014367054364,20.668194971530973,56.09938635129836)"></circle><circle r="5" cx="35" cy="105" fill="#1a1a1a" transform="matrix(0.4016402577461705,0,0,0.4016402577461705,20.942590978884034,62.827772936652096)"></circle><circle r="5" cx="35" cy="115" fill="#1a1a1a" transform="matrix(0.3974567700784801,0,0,0.3974567700784801,21.089013047253196,69.2924714409748)"></circle><circle r="5" cx="35" cy="125" fill="#1a1a1a" transform="matrix(0.39672418343472404,0,0,0.39672418343472404,21.114653579784658,75.40947707065949)"></circle><circle r="5" cx="35" cy="135" fill="#1a1a1a" transform="matrix(0.39958816300372557,0,0,0.39958816300372557,21.014414294869603,81.05559799449705)"></circle><circle r="5" cx="35" cy="145" fill="#1a1a1a" transform="matrix(0.4046915820789632,0,0,0.4046915820789632,20.83579462723629,86.31972059855033)"></circle><circle r="5" cx="35" cy="155" fill="#1a1a1a" transform="matrix(0.40233197419504113,0,0,0.40233197419504113,20.91838090317356,92.63854399976861)"></circle><circle r="5" cx="35" cy="165" fill="#1a1a1a" transform="matrix(0.3820465478606126,0,0,0.3820465478606126,21.62837082487856,101.96231960299892)"></circle><circle r="5" cx="35" cy="175" fill="#1a1a1a" transform="matrix(0.34685528395833687,0,0,0.34685528395833687,22.860065061458208,114.30032530729105)"></circle><circle r="5" cx="35" cy="185" fill="#1a1a1a" transform="matrix(0.3111533758381937,0,0,0.3111533758381937,24.109631845663223,127.4366359808995)"></circle><circle r="5" cx="35" cy="195" fill="#1a1a1a" transform="matrix(0.29279434453399333,0,0,0.29279434453399333,24.752197941310236,137.90510281587132)"></circle><circle r="5" cx="45" cy="5" fill="#1a1a1a" transform="matrix(0.34788456246909166,0,0,0.34788456246909166,29.345194688890874,3.2605771876545417)"></circle><circle r="5" cx="45" cy="15" fill="#1a1a1a" transform="matrix(0.42224194197220427,0,0,0.42224194197220427,25.99911261125081,8.666370870416936)"></circle><circle r="5" cx="45" cy="25" fill="#1a1a1a" transform="matrix(0.5010550658475831,0,0,0.5010550658475831,22.45252203685876,12.473622402148486)"></circle><circle r="5" cx="45" cy="35" fill="#1a1a1a" transform="matrix(0.5619673693718283,0,0,0.5619673693718283,19.711468378267725,15.331142071986008)"></circle><circle r="5" cx="45" cy="45" fill="#1a1a1a" transform="matrix(0.59056168903372,0,0,0.59056168903372,18.4247239934826,18.4247239934826)"></circle><circle r="5" cx="45" cy="55" fill="#1a1a1a" transform="matrix(0.5846634614878249,0,0,0.5846634614878249,18.69014423304788,22.84351120255279)"></circle><circle r="5" cx="45" cy="65" fill="#1a1a1a" transform="matrix(0.5541665378313994,0,0,0.5541665378313994,20.06250579758703,28.979175040959042)"></circle><circle r="5" cx="45" cy="75" fill="#1a1a1a" transform="matrix(0.5168112583796998,0,0,0.5168112583796998,21.74349337291351,36.23915562152252)"></circle><circle r="5" cx="45" cy="85" fill="#1a1a1a" transform="matrix(0.4904648792479304,0,0,0.4904648792479304,22.929080433843133,43.31048526392591)"></circle><circle r="5" cx="45" cy="95" fill="#1a1a1a" transform="matrix(0.4837880467823862,0,0,0.4837880467823862,23.22953789479262,49.04013555567331)"></circle><circle r="5" cx="45" cy="105" fill="#1a1a1a" transform="matrix(0.49033848470147057,0,0,0.49033848470147057,22.934768188433825,53.51445910634559)"></circle><circle r="5" cx="45" cy="115" fill="#1a1a1a" transform="matrix(0.49649269905153404,0,0,0.49649269905153404,22.657828542680967,57.90333960907358)"></circle><circle r="5" cx="45" cy="125" fill="#1a1a1a" transform="matrix(0.4975743785291358,0,0,0.4975743785291358,22.60915296618889,62.803202683858025)"></circle><circle r="5" cx="45" cy="135" fill="#1a1a1a" transform="matrix(0.49334584324940844,0,0,0.49334584324940844,22.79943705377662,68.39831116132986)"></circle><circle r="5" cx="45" cy="145" fill="#1a1a1a" transform="matrix(0.48468292417038694,0,0,0.48468292417038694,23.189268412332588,74.7209759952939)"></circle><circle r="5" cx="45" cy="155" fill="#1a1a1a" transform="matrix(0.47097214938844273,0,0,0.47097214938844273,23.806253277520078,81.99931684479138)"></circle><circle r="5" cx="45" cy="165" fill="#1a1a1a" transform="matrix(0.44757352706536374,0,0,0.44757352706536374,24.85919128205863,91.15036803421498)"></circle><circle r="5" cx="45" cy="175" fill="#1a1a1a" transform="matrix(0.4148837703971162,0,0,0.4148837703971162,26.33023033212977,102.39534018050466)"></circle><circle r="5" cx="45" cy="185" fill="#1a1a1a" transform="matrix(0.381432049602499,0,0,0.381432049602499,27.835557767887547,114.43508026213556)"></circle><circle r="5" cx="45" cy="195" fill="#1a1a1a" transform="matrix(0.3598791952386899,0,0,0.3598791952386899,28.805436214258954,124.82355692845547)"></circle><circle r="5" cx="55" cy="5" fill="#1a1a1a" transform="matrix(0.33107481706887076,0,0,0.33107481706887076,36.790887612959175,3.344625914655646)"></circle><circle r="5" cx="55" cy="15" fill="#1a1a1a" transform="matrix(0.41982092496466705,0,0,0.41982092496466705,31.909851340150844,8.702686125529993)"></circle><circle r="5" cx="55" cy="25" fill="#1a1a1a" transform="matrix(0.5132867947592641,0,0,0.5132867947592641,26.76922814490401,12.167829202686631)"></circle><circle r="5" cx="55" cy="35" fill="#1a1a1a" transform="matrix(0.58672301759551,0,0,0.58672301759551,22.73023560877352,14.464694384157148)"></circle><circle r="5" cx="55" cy="45" fill="#1a1a1a" transform="matrix(0.6233796441701285,0,0,0.6233796441701285,20.714121007335578,16.94791601234422)"></circle><circle r="5" cx="55" cy="55" fill="#1a1a1a" transform="matrix(0.6216864029824164,0,0,0.6216864029824164,20.807249279118942,20.807249279118942)"></circle><circle r="5" cx="55" cy="65" fill="#1a1a1a" transform="matrix(0.5940288497409627,0,0,0.5940288497409627,22.328414812904086,26.38812476683742)"></circle><circle r="5" cx="55" cy="75" fill="#1a1a1a" transform="matrix(0.5609431365428384,0,0,0.5609431365428384,24.1481291650129,32.929264759287115)"></circle><circle r="5" cx="55" cy="85" fill="#1a1a1a" transform="matrix(0.5420741638202802,0,0,0.5420741638202802,25.185922736733026,38.92369607527618)"></circle><circle r="5" cx="55" cy="95" fill="#1a1a1a" transform="matrix(0.5461063076599697,0,0,0.5461063076599697,24.964154810168694,43.11990077230288)"></circle><circle r="5" cx="55" cy="105" fill="#1a1a1a" transform="matrix(0.5648570473577876,0,0,0.5648570473577876,23.93286405526031,45.6900100274323)"></circle><circle r="5" cx="55" cy="115" fill="#1a1a1a" transform="matrix(0.5800226999080255,0,0,0.5800226999080255,23.09875310714486,48.29738951057708)"></circle><circle r="5" cx="55" cy="125" fill="#1a1a1a" transform="matrix(0.5827052819626161,0,0,0.5827052819626161,22.951211083909136,52.161839754673)"></circle><circle r="5" cx="55" cy="135" fill="#1a1a1a" transform="matrix(0.5725043870655409,0,0,0.5725043870655409,23.5122603421616,57.71190774615198)"></circle><circle r="5" cx="55" cy="145" fill="#1a1a1a" transform="matrix(0.5556061846331193,0,0,0.5556061846331193,24.44166154040631,64.4371032281977)"></circle><circle r="5" cx="55" cy="155" fill="#1a1a1a" transform="matrix(0.540314191275413,0,0,0.540314191275413,25.28272123341448,71.25130035231098)"></circle><circle r="5" cx="55" cy="165" fill="#1a1a1a" transform="matrix(0.5244352584843287,0,0,0.5244352584843287,26.156062597497442,78.46818235008577)"></circle><circle r="5" cx="55" cy="175" fill="#1a1a1a" transform="matrix(0.5026711496915506,0,0,0.5026711496915506,27.353088664123725,87.03254880397864)"></circle><circle r="5" cx="55" cy="185" fill="#1a1a1a" transform="matrix(0.47604566434114026,0,0,0.47604566434114026,28.817490459964457,96.93156009179773)"></circle><circle r="5" cx="55" cy="195" fill="#1a1a1a" transform="matrix(0.45159741877322324,0,0,0.45159741877322324,30.16214405946255,106.93850333922147)"></circle><circle r="5" cx="65" cy="5" fill="#1a1a1a" transform="matrix(0.32376230566817576,0,0,0.32376230566817576,43.955450131568576,3.3811884716591214)"></circle><circle r="5" cx="65" cy="15" fill="#1a1a1a" transform="matrix(0.4186264663237256,0,0,0.4186264663237256,37.78927968895783,8.720603005144117)"></circle><circle r="5" cx="65" cy="25" fill="#1a1a1a" transform="matrix(0.5184453550213828,0,0,0.5184453550213828,31.301051923610117,12.038865205972836)"></circle><circle r="5" cx="65" cy="35" fill="#1a1a1a" transform="matrix(0.597177405319435,0,0,0.597177405319435,26.183468654236727,14.098790813819775)"></circle><circle r="5" cx="65" cy="45" fill="#1a1a1a" transform="matrix(0.63687464005592,0,0,0.63687464005592,23.6031483963652,16.3406411974836)"></circle><circle r="5" cx="65" cy="55" fill="#1a1a1a" transform="matrix(0.6366232232448581,0,0,0.6366232232448581,23.61949048908422,19.985724107705202)"></circle><circle r="5" cx="65" cy="65" fill="#1a1a1a" transform="matrix(0.6108510165180787,0,0,0.6108510165180787,25.294683926324886,25.294683926324886)"></circle><circle r="5" cx="65" cy="75" fill="#1a1a1a" transform="matrix(0.5813337489167918,0,0,0.5813337489167918,27.213306320408535,31.399968831240614)"></circle><circle r="5" cx="65" cy="85" fill="#1a1a1a" transform="matrix(0.5679134922743297,0,0,0.5679134922743297,28.085623002168568,36.72735315668197)"></circle><circle r="5" cx="65" cy="95" fill="#1a1a1a" transform="matrix(0.5789496633391046,0,0,0.5789496633391046,27.368271882958204,39.999781982785066)"></circle><circle r="5" cx="65" cy="105" fill="#1a1a1a" transform="matrix(0.6053093552558562,0,0,0.6053093552558562,25.65489190836935,41.442517698135106)"></circle><circle r="5" cx="65" cy="115" fill="#1a1a1a" transform="matrix(0.6263647045047226,0,0,0.6263647045047226,24.28629420719303,42.9680589819569)"></circle><circle r="5" cx="65" cy="125" fill="#1a1a1a" transform="matrix(0.6306016476490279,0,0,0.6306016476490279,24.010892902813183,46.174794043871515)"></circle><circle r="5" cx="65" cy="135" fill="#1a1a1a" transform="matrix(0.6205719401941343,0,0,0.6205719401941343,24.662823887381272,51.222788073791875)"></circle><circle r="5" cx="65" cy="145" fill="#1a1a1a" transform="matrix(0.6086746170025834,0,0,0.6086746170025834,25.436149894832077,56.742180534625405)"></circle><circle r="5" cx="65" cy="155" fill="#1a1a1a" transform="matrix(0.6034645316979943,0,0,0.6034645316979943,25.77480543963037,61.462997586810886)"></circle><circle r="5" cx="65" cy="165" fill="#1a1a1a" transform="matrix(0.6024773506262078,0,0,0.6024773506262078,25.838972209296493,65.59123714667572)"></circle><circle r="5" cx="65" cy="175" fill="#1a1a1a" transform="matrix(0.595690917961621,0,0,0.595690917961621,26.280090332494638,70.75408935671632)"></circle><circle r="5" cx="65" cy="185" fill="#1a1a1a" transform="matrix(0.5772769515796352,0,0,0.5772769515796352,27.476998147323712,78.20377040800932)"></circle><circle r="5" cx="65" cy="195" fill="#1a1a1a" transform="matrix(0.549201856484071,0,0,0.549201856484071,29.301879328535385,87.90563798560615)"></circle><circle r="5" cx="75" cy="5" fill="#1a1a1a" transform="matrix(0.32664965792880907,0,0,0.32664965792880907,50.50127565533932,3.3667517103559548)"></circle><circle r="5" cx="75" cy="15" fill="#1a1a1a" transform="matrix(0.4190982724052663,0,0,0.4190982724052663,43.567629569605025,8.713525913921005)"></circle><circle r="5" cx="75" cy="25" fill="#1a1a1a" transform="matrix(0.5164075284325218,0,0,0.5164075284325218,36.26943536756087,12.089810866807516)"></circle><circle r="5" cx="75" cy="35" fill="#1a1a1a" transform="matrix(0.593044382315391,0,0,0.593044382315391,30.521671326345675,14.243446618961315)"></circle><circle r="5" cx="75" cy="45" fill="#1a1a1a" transform="matrix(0.6314336066484171,0,0,0.6314336066484171,27.64247950136872,16.585487700821233)"></circle><circle r="5" cx="75" cy="55" fill="#1a1a1a" transform="matrix(0.6310100543698068,0,0,0.6310100543698068,27.67424592226449,20.29444841724556)"></circle><circle r="5" cx="75" cy="65" fill="#1a1a1a" transform="matrix(0.6059845456534407,0,0,0.6059845456534407,29.551159075991947,25.61100453252635)"></circle><circle r="5" cx="75" cy="75" fill="#1a1a1a" transform="matrix(0.5773394866099357,0,0,0.5773394866099357,31.699538504254818,31.699538504254818)"></circle><circle r="5" cx="75" cy="85" fill="#1a1a1a" transform="matrix(0.5643305458342778,0,0,0.5643305458342778,32.67520906242917,37.03190360408639)"></circle><circle r="5" cx="75" cy="95" fill="#1a1a1a" transform="matrix(0.5752518214955332,0,0,0.5752518214955332,31.85611338783501,40.35107695792434)"></circle><circle r="5" cx="75" cy="105" fill="#1a1a1a" transform="matrix(0.6013883590324444,0,0,0.6013883590324444,29.895873072566673,41.85422230159334)"></circle><circle r="5" cx="75" cy="115" fill="#1a1a1a" transform="matrix(0.6228384407768789,0,0,0.6228384407768789,28.287116941734084,43.373579310658926)"></circle><circle r="5" cx="75" cy="125" fill="#1a1a1a" transform="matrix(0.6299308747098146,0,0,0.6299308747098146,27.75518439676391,46.258640661273176)"></circle><circle r="5" cx="75" cy="135" fill="#1a1a1a" transform="matrix(0.6310982124762724,0,0,0.6310982124762724,27.667634064279568,49.801741315703225)"></circle><circle r="5" cx="75" cy="145" fill="#1a1a1a" transform="matrix(0.6373857156792812,0,0,0.6373857156792812,27.19607132405391,52.57907122650424)"></circle><circle r="5" cx="75" cy="155" fill="#1a1a1a" transform="matrix(0.6512804056319058,0,0,0.6512804056319058,26.153969577607064,54.0515371270546)"></circle><circle r="5" cx="75" cy="165" fill="#1a1a1a" transform="matrix(0.6671520660321971,0,0,0.6671520660321971,24.963595047585216,54.91990910468748)"></circle><circle r="5" cx="75" cy="175" fill="#1a1a1a" transform="matrix(0.6735326339859444,0,0,0.6735326339859444,24.485052451054166,57.13178905245972)"></circle><circle r="5" cx="75" cy="185" fill="#1a1a1a" transform="matrix(0.6604940537965307,0,0,0.6604940537965307,25.462945965260197,62.80860522809144)"></circle><circle r="5" cx="75" cy="195" fill="#1a1a1a" transform="matrix(0.6264074452293439,0,0,0.6264074452293439,28.01944160779921,72.85054818027794)"></circle><circle r="5" cx="85" cy="5" fill="#1a1a1a" transform="matrix(0.33898600375945254,0,0,0.33898600375945254,56.18618968044653,3.3050699812027373)"></circle><circle r="5" cx="85" cy="15" fill="#1a1a1a" transform="matrix(0.4211236833313592,0,0,0.4211236833313592,49.20448691683447,8.683144750029612)"></circle><circle r="5" cx="85" cy="25" fill="#1a1a1a" transform="matrix(0.5076008497909463,0,0,0.5076008497909463,41.85392776776956,12.309977816049496)"></circle><circle r="5" cx="85" cy="35" fill="#1a1a1a" transform="matrix(0.5764459199613027,0,0,0.5764459199613027,36.00209680328927,14.824392801354406)"></circle><circle r="5" cx="85" cy="45" fill="#1a1a1a" transform="matrix(0.6134168229492865,0,0,0.6134168229492865,32.85957004931065,17.39624296728211)"></circle><circle r="5" cx="85" cy="55" fill="#1a1a1a" transform="matrix(0.6147177170752381,0,0,0.6147177170752381,32.74899404860476,21.190527030597174)"></circle><circle r="5" cx="85" cy="65" fill="#1a1a1a" transform="matrix(0.5905000357727763,0,0,0.5905000357727763,34.807496959314015,26.617497674769538)"></circle><circle r="5" cx="85" cy="75" fill="#1a1a1a" transform="matrix(0.5594576774589677,0,0,0.5594576774589677,37.446097415987744,33.04067419057743)"></circle><circle r="5" cx="85" cy="85" fill="#1a1a1a" transform="matrix(0.5401244176984742,0,0,0.5401244176984742,39.08942449562969,39.08942449562969)"></circle><circle r="5" cx="85" cy="95" fill="#1a1a1a" transform="matrix(0.5414992039940929,0,0,0.5414992039940929,38.9725676605021,43.557575620561174)"></circle><circle r="5" cx="85" cy="105" fill="#1a1a1a" transform="matrix(0.5571187333270905,0,0,0.5571187333270905,37.64490766719731,46.5025330006555)"></circle><circle r="5" cx="85" cy="115" fill="#1a1a1a" transform="matrix(0.571464652123435,0,0,0.571464652123435,36.42550456950802,49.28156500580498)"></circle><circle r="5" cx="85" cy="125" fill="#1a1a1a" transform="matrix(0.5825565215154673,0,0,0.5825565215154673,35.482695671185276,52.18043481056658)"></circle><circle r="5" cx="85" cy="135" fill="#1a1a1a" transform="matrix(0.6024603472780461,0,0,0.6024603472780461,33.790870481366085,53.66785311746378)"></circle><circle r="5" cx="85" cy="145" fill="#1a1a1a" transform="matrix(0.6356952145250518,0,0,0.6356952145250518,30.96590676537059,52.82419389386749)"></circle><circle r="5" cx="85" cy="155" fill="#1a1a1a" transform="matrix(0.6746037679581461,0,0,0.6746037679581461,27.658679723557576,50.436415966487345)"></circle><circle r="5" cx="85" cy="165" fill="#1a1a1a" transform="matrix(0.7065712490683604,0,0,0.7065712490683604,24.94144382918936,48.415743903720525)"></circle><circle r="5" cx="85" cy="175" fill="#1a1a1a" transform="matrix(0.7201091454390032,0,0,0.7201091454390032,23.79072263768473,48.98089954817445)"></circle><circle r="5" cx="85" cy="185" fill="#1a1a1a" transform="matrix(0.7058312151788773,0,0,0.7058312151788773,25.004346709795435,54.42122968056714)"></circle><circle r="5" cx="85" cy="195" fill="#1a1a1a" transform="matrix(0.6613775706101014,0,0,0.6613775706101014,28.78290649814138,66.03137373103024)"></circle><circle r="5" cx="95" cy="5" fill="#1a1a1a" transform="matrix(0.35130610926112904,0,0,0.35130610926112904,61.62591962019274,3.2434694536943547)"></circle><circle r="5" cx="95" cy="15" fill="#1a1a1a" transform="matrix(0.4202813585400309,0,0,0.4202813585400309,55.073270938697064,8.695779621899536)"></circle><circle r="5" cx="95" cy="25" fill="#1a1a1a" transform="matrix(0.4935579638179595,0,0,0.4935579638179595,48.11199343729385,12.661049938589487)"></circle><circle r="5" cx="95" cy="35" fill="#1a1a1a" transform="matrix(0.5549569562877763,0,0,0.5549569562877763,42.27908915266125,15.57650652992783)"></circle><circle r="5" cx="95" cy="45" fill="#1a1a1a" transform="matrix(0.5928644513640933,0,0,0.5928644513640933,38.67787712041114,18.321099688615803)"></circle><circle r="5" cx="95" cy="55" fill="#1a1a1a" transform="matrix(0.5997345601330782,0,0,0.5997345601330782,38.025216787357564,22.014600719572172)"></circle><circle r="5" cx="95" cy="65" fill="#1a1a1a" transform="matrix(0.5783473907860699,0,0,0.5783473907860699,40.05699787532336,27.407419598905456)"></circle><circle r="5" cx="95" cy="75" fill="#1a1a1a" transform="matrix(0.5432817443953324,0,0,0.5432817443953324,43.38823428244342,34.25386917035007)"></circle><circle r="5" cx="95" cy="85" fill="#1a1a1a" transform="matrix(0.5119878002252953,0,0,0.5119878002252953,46.36115897859695,41.48103698084989)"></circle><circle r="5" cx="95" cy="95" fill="#1a1a1a" transform="matrix(0.49488947239333636,0,0,0.49488947239333636,47.98550012263305,47.98550012263305)"></circle><circle r="5" cx="95" cy="105" fill="#1a1a1a" transform="matrix(0.4898341894841129,0,0,0.4898341894841129,48.46575199900928,53.56741010416815)"></circle><circle r="5" cx="95" cy="115" fill="#1a1a1a" transform="matrix(0.4898998426905808,0,0,0.4898998426905808,48.459514944394826,58.66151809058321)"></circle><circle r="5" cx="95" cy="125" fill="#1a1a1a" transform="matrix(0.5031541609568865,0,0,0.5031541609568865,47.200354709095784,62.10572988038919)"></circle><circle r="5" cx="95" cy="135" fill="#1a1a1a" transform="matrix(0.5420452194247574,0,0,0.5420452194247574,43.50570415464805,61.82389537765775)"></circle><circle r="5" cx="95" cy="145" fill="#1a1a1a" transform="matrix(0.6030824130174659,0,0,0.6030824130174659,37.70717076334074,57.553050112467446)"></circle><circle r="5" cx="95" cy="155" fill="#1a1a1a" transform="matrix(0.6676238843028768,0,0,0.6676238843028768,31.575730991226706,51.5182979330541)"></circle><circle r="5" cx="95" cy="165" fill="#1a1a1a" transform="matrix(0.7139372486670084,0,0,0.7139372486670084,27.175961376634206,47.20035396994362)"></circle><circle r="5" cx="95" cy="175" fill="#1a1a1a" transform="matrix(0.7282530645247316,0,0,0.7282530645247316,25.815958870150496,47.555713708171965)"></circle><circle r="5" cx="95" cy="185" fill="#1a1a1a" transform="matrix(0.7049297714978848,0,0,0.7049297714978848,28.031671707700937,54.58799677530567)"></circle><circle r="5" cx="95" cy="195" fill="#1a1a1a" transform="matrix(0.6449313542726541,0,0,0.6449313542726541,33.73152134409786,69.23838591683244)"></circle><circle r="5" cx="105" cy="5" fill="#1a1a1a" transform="matrix(0.3433500173746637,0,0,0.3433500173746637,68.94824817566031,3.2832499131266815)"></circle><circle r="5" cx="105" cy="15" fill="#1a1a1a" transform="matrix(0.40075904876889756,0,0,0.40075904876889756,62.920299879265755,8.988614268466536)"></circle><circle r="5" cx="105" cy="25" fill="#1a1a1a" transform="matrix(0.46841287044591895,0,0,0.46841287044591895,55.81664860317851,13.289677224930042)"></circle><circle r="5" cx="105" cy="35" fill="#1a1a1a" transform="matrix(0.5323510480259988,0,0,0.5323510480259988,49.10313995727013,16.367713319090043)"></circle><circle r="5" cx="105" cy="45" fill="#1a1a1a" transform="matrix(0.5774079599178175,0,0,0.5774079599178175,44.372164208629165,19.016641803698214)"></circle><circle r="5" cx="105" cy="55" fill="#1a1a1a" transform="matrix(0.5934516327680228,0,0,0.5934516327680228,42.687578559357604,22.360161748617692)"></circle><circle r="5" cx="105" cy="65" fill="#1a1a1a" transform="matrix(0.5787729971098204,0,0,0.5787729971098204,44.228835303468855,27.37975518786167)"></circle><circle r="5" cx="105" cy="75" fill="#1a1a1a" transform="matrix(0.5413199626152059,0,0,0.5413199626152059,48.161403925403384,34.40100280385956)"></circle><circle r="5" cx="105" cy="85" fill="#1a1a1a" transform="matrix(0.4960609065062709,0,0,0.4960609065062709,52.913604816841556,42.83482294696697)"></circle><circle r="5" cx="105" cy="95" fill="#1a1a1a" transform="matrix(0.4550534669760852,0,0,0.4550534669760852,57.21938596751106,51.76992063727191)"></circle><circle r="5" cx="105" cy="105" fill="#1a1a1a" transform="matrix(0.42262658248464735,0,0,0.42262658248464735,60.62420883911203,60.62420883911203)"></circle><circle r="5" cx="105" cy="115" fill="#1a1a1a" transform="matrix(0.40367932546650737,0,0,0.40367932546650737,62.61367082601673,68.57687757135164)"></circle><circle r="5" cx="105" cy="125" fill="#1a1a1a" transform="matrix(0.4144956851792614,0,0,0.4144956851792614,61.477953056177554,73.18803935259233)"></circle><circle r="5" cx="105" cy="135" fill="#1a1a1a" transform="matrix(0.46634187365691565,0,0,0.46634187365691565,56.034103266023855,72.0438470563164)"></circle><circle r="5" cx="105" cy="145" fill="#1a1a1a" transform="matrix(0.5484901461494056,0,0,0.5484901461494056,47.40853465431241,65.46892880833619)"></circle><circle r="5" cx="105" cy="155" fill="#1a1a1a" transform="matrix(0.632606830628197,0,0,0.632606830628197,38.57628278403932,56.94594125262947)"></circle><circle r="5" cx="105" cy="165" fill="#1a1a1a" transform="matrix(0.6881339323243283,0,0,0.6881339323243283,32.74593710594553,51.457901166485826)"></circle><circle r="5" cx="105" cy="175" fill="#1a1a1a" transform="matrix(0.6972899744959482,0,0,0.6972899744959482,31.784552677925433,52.974254463209064)"></circle><circle r="5" cx="105" cy="185" fill="#1a1a1a" transform="matrix(0.6591195099475377,0,0,0.6591195099475377,35.79245145550854,63.06289586112902)"></circle><circle r="5" cx="105" cy="195" fill="#1a1a1a" transform="matrix(0.581915390447413,0,0,0.581915390447413,43.898884003021635,81.52649886275447)"></circle><circle r="5" cx="115" cy="5" fill="#1a1a1a" transform="matrix(0.3056694754554223,0,0,0.3056694754554223,79.84801032262644,3.4716526227228885)"></circle><circle r="5" cx="115" cy="15" fill="#1a1a1a" transform="matrix(0.3535445254257098,0,0,0.3535445254257098,74.34237957604337,9.696832118614353)"></circle><circle r="5" cx="115" cy="25" fill="#1a1a1a" transform="matrix(0.42376093463974546,0,0,0.42376093463974546,66.26749251642927,14.40597553491757)"></circle><circle r="5" cx="115" cy="35" fill="#1a1a1a" transform="matrix(0.501899381144254,0,0,0.501899381144254,57.281571168410785,17.433521659951108)"></circle><circle r="5" cx="115" cy="45" fill="#1a1a1a" transform="matrix(0.5656879770503992,0,0,0.5656879770503992,49.945882639204086,19.544041032732036)"></circle><circle r="5" cx="115" cy="55" fill="#1a1a1a" transform="matrix(0.5970519779565824,0,0,0.5970519779565824,46.33902253499302,22.16214274951269)"></circle><circle r="5" cx="115" cy="65" fill="#1a1a1a" transform="matrix(0.5918718095318733,0,0,0.5918718095318733,46.93474190383456,26.528332380428232)"></circle><circle r="5" cx="115" cy="75" fill="#1a1a1a" transform="matrix(0.5556313520980405,0,0,0.5556313520980405,51.10239450872535,33.327648592646966)"></circle><circle r="5" cx="115" cy="85" fill="#1a1a1a" transform="matrix(0.49850768776680787,0,0,0.49850768776680787,57.671615906817095,42.62684653982133)"></circle><circle r="5" cx="115" cy="95" fill="#1a1a1a" transform="matrix(0.4335275752014017,0,0,0.4335275752014017,65.1443288518388,53.81488035586683)"></circle><circle r="5" cx="115" cy="105" fill="#1a1a1a" transform="matrix(0.3735361705040723,0,0,0.3735361705040723,72.0433403920317,65.77870209707241)"></circle><circle r="5" cx="115" cy="115" fill="#1a1a1a" transform="matrix(0.33476393022513873,0,0,0.33476393022513873,76.50214802410905,76.50214802410905)"></circle><circle r="5" cx="115" cy="125" fill="#1a1a1a" transform="matrix(0.338251600663418,0,0,0.338251600663418,76.10106592370693,82.71854991707275)"></circle><circle r="5" cx="115" cy="135" fill="#1a1a1a" transform="matrix(0.3938700897527995,0,0,0.3938700897527995,69.70493967842805,81.82753788337206)"></circle><circle r="5" cx="115" cy="145" fill="#1a1a1a" transform="matrix(0.4856201614456914,0,0,0.4856201614456914,59.15368143374549,74.58507659037474)"></circle><circle r="5" cx="115" cy="155" fill="#1a1a1a" transform="matrix(0.5781220923372431,0,0,0.5781220923372431,48.515959381217044,65.39107568772732)"></circle><circle r="5" cx="115" cy="165" fill="#1a1a1a" transform="matrix(0.6341866364378292,0,0,0.6341866364378292,42.06853680964964,60.359204987758176)"></circle><circle r="5" cx="115" cy="175" fill="#1a1a1a" transform="matrix(0.6328688489056199,0,0,0.6328688489056199,42.22008237585371,64.24795144151652)"></circle><circle r="5" cx="115" cy="185" fill="#1a1a1a" transform="matrix(0.5780187198593716,0,0,0.5780187198593716,48.52784721617226,78.0665432649396)"></circle><circle r="5" cx="115" cy="195" fill="#1a1a1a" transform="matrix(0.4882404337765783,0,0,0.4882404337765783,58.8523501156935,99.79311541356724)"></circle><circle r="5" cx="125" cy="5" fill="#1a1a1a" transform="matrix(0.24760753870052954,0,0,0.24760753870052954,94.04905766243381,3.7619623064973524)"></circle><circle r="5" cx="125" cy="15" fill="#1a1a1a" transform="matrix(0.28629601477265604,0,0,0.28629601477265604,89.212998153418,10.705559778410159)"></circle><circle r="5" cx="125" cy="25" fill="#1a1a1a" transform="matrix(0.36211723008603297,0,0,0.36211723008603297,79.73534623924587,15.947068031184347)"></circle><circle r="5" cx="125" cy="35" fill="#1a1a1a" transform="matrix(0.45987295389571625,0,0,0.45987295389571625,67.51588076303547,18.90444661364993)"></circle><circle r="5" cx="125" cy="45" fill="#1a1a1a" transform="matrix(0.5501132054793734,0,0,0.5501132054793734,56.235849315078326,20.2449057534282)"></circle><circle r="5" cx="125" cy="55" fill="#1a1a1a" transform="matrix(0.604619774592996,0,0,0.604619774592996,49.4225281758755,21.74591390564109)"></circle><circle r="5" cx="125" cy="65" fill="#1a1a1a" transform="matrix(0.6115935711390862,0,0,0.6115935711390862,48.55080360761423,25.246417875959395)"></circle><circle r="5" cx="125" cy="75" fill="#1a1a1a" transform="matrix(0.577151556646872,0,0,0.577151556646872,52.856055419141,31.7136332514846)"></circle><circle r="5" cx="125" cy="85" fill="#1a1a1a" transform="matrix(0.5112552648249107,0,0,0.5112552648249107,61.093091896886165,41.54330248988259)"></circle><circle r="5" cx="125" cy="95" fill="#1a1a1a" transform="matrix(0.4274026813556766,0,0,0.4274026813556766,71.57466483054043,54.39674527121072)"></circle><circle r="5" cx="125" cy="105" fill="#1a1a1a" transform="matrix(0.346601243993654,0,0,0.346601243993654,81.67484450079326,68.60686938066632)"></circle><circle r="5" cx="125" cy="115" fill="#1a1a1a" transform="matrix(0.2915919544188793,0,0,0.2915919544188793,88.55100569764008,81.46692524182887)"></circle><circle r="5" cx="125" cy="125" fill="#1a1a1a" transform="matrix(0.2850779824061064,0,0,0.2850779824061064,89.36525219923669,89.36525219923669)"></circle><circle r="5" cx="125" cy="135" fill="#1a1a1a" transform="matrix(0.33572813445573546,0,0,0.33572813445573546,83.03398319303307,89.67670184847572)"></circle><circle r="5" cx="125" cy="145" fill="#1a1a1a" transform="matrix(0.4247567525742627,0,0,0.4247567525742627,71.90540592821716,83.41027087673191)"></circle><circle r="5" cx="125" cy="155" fill="#1a1a1a" transform="matrix(0.5133464529836338,0,0,0.5133464529836338,60.83169337704578,75.43129978753676)"></circle><circle r="5" cx="125" cy="165" fill="#1a1a1a" transform="matrix(0.561607289930131,0,0,0.561607289930131,54.79908875873363,72.33479716152839)"></circle><circle r="5" cx="125" cy="175" fill="#1a1a1a" transform="matrix(0.5487142120384301,0,0,0.5487142120384301,56.41072349519624,78.97501289327474)"></circle><circle r="5" cx="125" cy="185" fill="#1a1a1a" transform="matrix(0.4825560617959678,0,0,0.4825560617959678,64.68049227550404,95.72713646331387)"></circle><circle r="5" cx="125" cy="195" fill="#1a1a1a" transform="matrix(0.3882925981451154,0,0,0.3882925981451154,76.46342523186058,119.2829433617025)"></circle><circle r="5" cx="135" cy="5" fill="#1a1a1a" transform="matrix(0.19130829323747836,0,0,0.19130829323747836,109.17338041294042,4.043458533812609)"></circle><circle r="5" cx="135" cy="15" fill="#1a1a1a" transform="matrix(0.21862533528256364,0,0,0.21862533528256364,105.48557973685391,11.720619970761545)"></circle><circle r="5" cx="135" cy="25" fill="#1a1a1a" transform="matrix(0.29689811674396754,0,0,0.29689811674396754,94.91875423956438,17.577545740340398)"></circle><circle r="5" cx="135" cy="35" fill="#1a1a1a" transform="matrix(0.41129111538001006,0,0,0.41129111538001006,79.47569942369864,20.60481096169965)"></circle><circle r="5" cx="135" cy="45" fill="#1a1a1a" transform="matrix(0.5271001176087494,0,0,0.5271001176087494,63.84148412281883,21.280494707606277)"></circle><circle r="5" cx="135" cy="55" fill="#1a1a1a" transform="matrix(0.6067647784721917,0,0,0.6067647784721917,53.08675490625413,21.62793868410278)"></circle><circle r="5" cx="135" cy="65" fill="#1a1a1a" transform="matrix(0.6286496852213836,0,0,0.6286496852213836,50.132292495113205,24.137770460610064)"></circle><circle r="5" cx="135" cy="75" fill="#1a1a1a" transform="matrix(0.5952370653699196,0,0,0.5952370653699196,54.64299617506086,30.357220097256032)"></circle><circle r="5" cx="135" cy="85" fill="#1a1a1a" transform="matrix(0.5215893097651296,0,0,0.5215893097651296,64.5854431817075,40.66490866996398)"></circle><circle r="5" cx="135" cy="95" fill="#1a1a1a" transform="matrix(0.42593389181222624,0,0,0.42593389181222624,77.49892460534946,54.53628027783851)"></circle><circle r="5" cx="135" cy="105" fill="#1a1a1a" transform="matrix(0.3333421475096152,0,0,0.3333421475096152,89.99881008620194,69.9990745114904)"></circle><circle r="5" cx="135" cy="115" fill="#1a1a1a" transform="matrix(0.26843761704136726,0,0,0.26843761704136726,98.76092169941542,84.12967404024276)"></circle><circle r="5" cx="135" cy="125" fill="#1a1a1a" transform="matrix(0.2526225999138402,0,0,0.2526225999138402,100.89594901163159,93.42217501076998)"></circle><circle r="5" cx="135" cy="135" fill="#1a1a1a" transform="matrix(0.2932950859496563,0,0,0.2932950859496563,95.4051633967964,95.4051633967964)"></circle><circle r="5" cx="135" cy="145" fill="#1a1a1a" transform="matrix(0.37143097310735285,0,0,0.37143097310735285,84.85681863050736,91.14250889943384)"></circle><circle r="5" cx="135" cy="155" fill="#1a1a1a" transform="matrix(0.4487493761474864,0,0,0.4487493761474864,74.41883422008934,85.4438466971396)"></circle><circle r="5" cx="135" cy="165" fill="#1a1a1a" transform="matrix(0.4867955448854349,0,0,0.4867955448854349,69.28260144046628,84.67873509390324)"></circle><circle r="5" cx="135" cy="175" fill="#1a1a1a" transform="matrix(0.46642366458315637,0,0,0.46642366458315637,72.03280528127388,93.37585869794763)"></circle><circle r="5" cx="135" cy="185" fill="#1a1a1a" transform="matrix(0.3974333741237715,0,0,0.3974333741237715,81.34649449329085,111.47483498153932)"></circle><circle r="5" cx="135" cy="195" fill="#1a1a1a" transform="matrix(0.30795489388343816,0,0,0.30795489388343816,93.42608932573584,134.94879569272956)"></circle><circle r="5" cx="145" cy="5" fill="#1a1a1a" transform="matrix(0.16081773525990678,0,0,0.16081773525990678,121.68142838731352,4.195911323700466)"></circle><circle r="5" cx="145" cy="15" fill="#1a1a1a" transform="matrix(0.17268739820973952,0,0,0.17268739820973952,119.96032725958777,12.409689026853908)"></circle><circle r="5" cx="145" cy="25" fill="#1a1a1a" transform="matrix(0.24545655564337013,0,0,0.24545655564337013,109.40879943171133,18.86358466973834)"></circle><circle r="5" cx="145" cy="35" fill="#1a1a1a" transform="matrix(0.366282997709788,0,0,0.366282997709788,91.88896533208074,22.18009508015742)"></circle><circle r="5" cx="145" cy="45" fill="#1a1a1a" transform="matrix(0.4981240568960982,0,0,0.4981240568960982,72.77201175006576,22.584417439675583)"></circle><circle r="5" cx="145" cy="55" fill="#1a1a1a" transform="matrix(0.5968294341229115,0,0,0.5968294341229115,58.45973205217784,22.174382661213528)"></circle><circle r="5" cx="145" cy="65" fill="#1a1a1a" transform="matrix(0.6321641654202015,0,0,0.6321641654202015,53.33619601407078,23.909329247686905)"></circle><circle r="5" cx="145" cy="75" fill="#1a1a1a" transform="matrix(0.6014603840263795,0,0,0.6014603840263795,57.78824431617498,29.890471198021537)"></circle><circle r="5" cx="145" cy="85" fill="#1a1a1a" transform="matrix(0.5248570451392514,0,0,0.5248570451392514,68.89572845480855,40.38715116316364)"></circle><circle r="5" cx="145" cy="95" fill="#1a1a1a" transform="matrix(0.425488393361786,0,0,0.425488393361786,83.30418296254103,54.57860263063033)"></circle><circle r="5" cx="145" cy="105" fill="#1a1a1a" transform="matrix(0.32927235672332,0,0,0.32927235672332,97.2555082751186,70.4264025440514)"></circle><circle r="5" cx="145" cy="115" fill="#1a1a1a" transform="matrix(0.26113546504548124,0,0,0.26113546504548124,107.13535756840523,84.96942151976965)"></circle><circle r="5" cx="145" cy="125" fill="#1a1a1a" transform="matrix(0.2395296992848711,0,0,0.2395296992848711,110.26819360369369,95.05878758939112)"></circle><circle r="5" cx="145" cy="135" fill="#1a1a1a" transform="matrix(0.2691811929811853,0,0,0.2691811929811853,105.96872701772813,98.66053894753998)"></circle><circle r="5" cx="145" cy="145" fill="#1a1a1a" transform="matrix(0.33183058826785294,0,0,0.33183058826785294,96.88456470116132,96.88456470116132)"></circle><circle r="5" cx="145" cy="155" fill="#1a1a1a" transform="matrix(0.3932901529289629,0,0,0.3932901529289629,87.97292782530039,94.04002629601075)"></circle><circle r="5" cx="145" cy="165" fill="#1a1a1a" transform="matrix(0.4201305488544863,0,0,0.4201305488544863,84.0810704160995,95.67845943900976)"></circle><circle r="5" cx="145" cy="175" fill="#1a1a1a" transform="matrix(0.39696557263338056,0,0,0.39696557263338056,87.43999196815982,105.53102478915841)"></circle><circle r="5" cx="145" cy="185" fill="#1a1a1a" transform="matrix(0.33503137648644066,0,0,0.33503137648644066,96.4204504094661,123.01920549662444)"></circle><circle r="5" cx="145" cy="195" fill="#1a1a1a" transform="matrix(0.26158394916257793,0,0,0.26158394916257793,107.0703273714262,143.9911299132973)"></circle><circle r="5" cx="155" cy="5" fill="#1a1a1a" transform="matrix(0.17232497044229683,0,0,0.17232497044229683,128.289629581444,4.138375147788516)"></circle><circle r="5" cx="155" cy="15" fill="#1a1a1a" transform="matrix(0.1643514867515412,0,0,0.1643514867515412,129.52551955351112,12.534727698726883)"></circle><circle r="5" cx="155" cy="25" fill="#1a1a1a" transform="matrix(0.2214500083857786,0,0,0.2214500083857786,120.67524870020432,19.463748305389274)"></circle><circle r="5" cx="155" cy="35" fill="#1a1a1a" transform="matrix(0.33433410544078945,0,0,0.33433410544078945,103.17821365667763,23.298306309572368)"></circle><circle r="5" cx="155" cy="45" fill="#1a1a1a" transform="matrix(0.46698258494815437,0,0,0.46698258494815437,82.61769933303607,23.985783677333053)"></circle><circle r="5" cx="155" cy="55" fill="#1a1a1a" transform="matrix(0.5727910632060176,0,0,0.5727910632060176,66.21738520306728,23.496493153341795)"></circle><circle r="5" cx="155" cy="65" fill="#1a1a1a" transform="matrix(0.6168097881778283,0,0,0.6168097881778283,59.39448283243662,24.907363768441165)"></circle><circle r="5" cx="155" cy="75" fill="#1a1a1a" transform="matrix(0.5924510560734978,0,0,0.5924510560734978,63.170086308607836,30.566170794487668)"></circle><circle r="5" cx="155" cy="85" fill="#1a1a1a" transform="matrix(0.5203301003796934,0,0,0.5203301003796934,74.34883444114752,40.77194146772606)"></circle><circle r="5" cx="155" cy="95" fill="#1a1a1a" transform="matrix(0.42610559279134935,0,0,0.42610559279134935,88.95363311734086,54.51996868482181)"></circle><circle r="5" cx="155" cy="105" fill="#1a1a1a" transform="matrix(0.334910139116189,0,0,0.334910139116189,103.0889284369907,69.83443539280015)"></circle><circle r="5" cx="155" cy="115" fill="#1a1a1a" transform="matrix(0.27017031732413654,0,0,0.27017031732413654,113.12360081475884,83.9304135077243)"></circle><circle r="5" cx="155" cy="125" fill="#1a1a1a" transform="matrix(0.2450288991884027,0,0,0.2450288991884027,117.02052062579759,94.37138760144967)"></circle><circle r="5" cx="155" cy="135" fill="#1a1a1a" transform="matrix(0.26079882626228923,0,0,0.26079882626228923,114.57618192934517,99.79215845459095)"></circle><circle r="5" cx="155" cy="145" fill="#1a1a1a" transform="matrix(0.30292836621450037,0,0,0.30292836621450037,108.04610323675244,101.07538689889745)"></circle><circle r="5" cx="155" cy="155" fill="#1a1a1a" transform="matrix(0.34447962811044663,0,0,0.34447962811044663,101.60565764288077,101.60565764288077)"></circle><circle r="5" cx="155" cy="165" fill="#1a1a1a" transform="matrix(0.3594691062811297,0,0,0.3594691062811297,99.28228852642489,105.6875974636136)"></circle><circle r="5" cx="155" cy="175" fill="#1a1a1a" transform="matrix(0.3376344629990422,0,0,0.3376344629990422,102.66665823514846,115.91396897516762)"></circle><circle r="5" cx="155" cy="185" fill="#1a1a1a" transform="matrix(0.29124695446415777,0,0,0.29124695446415777,109.85672205805554,131.11932423884403)"></circle><circle r="5" cx="155" cy="195" fill="#1a1a1a" transform="matrix(0.24358707962009307,0,0,0.24358707962009307,117.24400265888558,147.50051947408184)"></circle><circle r="5" cx="165" cy="5" fill="#1a1a1a" transform="matrix(0.22785736217099636,0,0,0.22785736217099636,127.40353524178559,3.8607131891450184)"></circle><circle r="5" cx="165" cy="15" fill="#1a1a1a" transform="matrix(0.1976827700674285,0,0,0.1976827700674285,132.3823429388743,12.034758448988573)"></circle><circle r="5" cx="165" cy="25" fill="#1a1a1a" transform="matrix(0.2302624428989718,0,0,0.2302624428989718,127.00669692166966,19.243437459367826)"></circle><circle r="5" cx="165" cy="35" fill="#1a1a1a" transform="matrix(0.32120183674225355,0,0,0.32120183674225355,112.00169693752817,23.757935714021126)"></circle><circle r="5" cx="165" cy="45" fill="#1a1a1a" transform="matrix(0.439087187008627,0,0,0.439087187008627,92.55061414357655,25.241076584611786)"></circle><circle r="5" cx="165" cy="55" fill="#1a1a1a" transform="matrix(0.5394040192964246,0,0,0.5394040192964246,75.99833681608995,25.33278069573088)"></circle><circle r="5" cx="165" cy="65" fill="#1a1a1a" transform="matrix(0.5862461787887002,0,0,0.5862461787887002,68.26938049986447,26.893998378734487)"></circle><circle r="5" cx="165" cy="75" fill="#1a1a1a" transform="matrix(0.5699883615488921,0,0,0.5699883615488921,70.9519203444328,32.25087288383309)"></circle><circle r="5" cx="165" cy="85" fill="#1a1a1a" transform="matrix(0.5087908684458538,0,0,0.5087908684458538,81.04950670643413,41.75277618210243)"></circle><circle r="5" cx="165" cy="95" fill="#1a1a1a" transform="matrix(0.4276293161979292,0,0,0.4276293161979292,94.44116282734169,54.375214961196725)"></circle><circle r="5" cx="165" cy="105" fill="#1a1a1a" transform="matrix(0.34876354145777666,0,0,0.34876354145777666,107.45401565946685,68.37982814693345)"></circle><circle r="5" cx="165" cy="115" fill="#1a1a1a" transform="matrix(0.29020454201876805,0,0,0.29020454201876805,117.11625056690326,81.62647766784167)"></circle><circle r="5" cx="165" cy="125" fill="#1a1a1a" transform="matrix(0.2608171378105116,0,0,0.2608171378105116,121.9651722612656,92.39785777368606)"></circle><circle r="5" cx="165" cy="135" fill="#1a1a1a" transform="matrix(0.2608086534383329,0,0,0.2608086534383329,121.96657218267507,99.79083178582505)"></circle><circle r="5" cx="165" cy="145" fill="#1a1a1a" transform="matrix(0.2803870581498592,0,0,0.2803870581498592,118.73613540527323,104.34387656827042)"></circle><circle r="5" cx="165" cy="155" fill="#1a1a1a" transform="matrix(0.30087383198671236,0,0,0.30087383198671236,115.35581772219246,108.36455604205958)"></circle><circle r="5" cx="165" cy="165" fill="#1a1a1a" transform="matrix(0.3046537299141882,0,0,0.3046537299141882,114.73213456415894,114.73213456415894)"></circle><circle r="5" cx="165" cy="175" fill="#1a1a1a" transform="matrix(0.28709334930397035,0,0,0.28709334930397035,117.6295973648449,124.7586638718052)"></circle><circle r="5" cx="165" cy="185" fill="#1a1a1a" transform="matrix(0.2608442188022802,0,0,0.2608442188022802,121.96070389762377,136.74383080020033)"></circle><circle r="5" cx="165" cy="195" fill="#1a1a1a" transform="matrix(0.24238632198296378,0,0,0.24238632198296378,125.00625687281098,147.73466721332207)"></circle><circle r="5" cx="175" cy="5" fill="#1a1a1a" transform="matrix(0.313677674095842,0,0,0.313677674095842,120.10640703322764,3.43161162952079)"></circle><circle r="5" cx="175" cy="15" fill="#1a1a1a" transform="matrix(0.2637699343950849,0,0,0.2637699343950849,128.84026148086014,11.043450984073726)"></circle><circle r="5" cx="175" cy="25" fill="#1a1a1a" transform="matrix(0.2690274153577699,0,0,0.2690274153577699,127.92020231239027,18.27431322183619)"></circle><circle r="5" cx="175" cy="35" fill="#1a1a1a" transform="matrix(0.3304236530276209,0,0,0.3304236530276209,117.17586072016634,23.435172144033267)"></circle><circle r="5" cx="175" cy="45" fill="#1a1a1a" transform="matrix(0.4227162213070991,0,0,0.4227162213070991,101.02466127125766,25.977770041180538)"></circle><circle r="5" cx="175" cy="55" fill="#1a1a1a" transform="matrix(0.5063341376495936,0,0,0.5063341376495936,86.39152591132112,27.151624312458168)"></circle><circle r="5" cx="175" cy="65" fill="#1a1a1a" transform="matrix(0.5479418357624064,0,0,0.5479418357624064,79.11017874157888,29.38378067544358)"></circle><circle r="5" cx="175" cy="75" fill="#1a1a1a" transform="matrix(0.5374854198648685,0,0,0.5374854198648685,80.94005152364801,34.68859351013486)"></circle><circle r="5" cx="175" cy="85" fill="#1a1a1a" transform="matrix(0.4903310024465128,0,0,0.4903310024465128,89.19207457186026,43.32186479204641)"></circle><circle r="5" cx="175" cy="95" fill="#1a1a1a" transform="matrix(0.42788758140398575,0,0,0.42788758140398575,100.1196732543025,54.350679766621354)"></circle><circle r="5" cx="175" cy="105" fill="#1a1a1a" transform="matrix(0.36574824870837075,0,0,0.36574824870837075,110.99405647603511,66.59643388562108)"></circle><circle r="5" cx="175" cy="115" fill="#1a1a1a" transform="matrix(0.3145909532760135,0,0,0.3145909532760135,119.94658317669763,78.82204037325845)"></circle><circle r="5" cx="175" cy="125" fill="#1a1a1a" transform="matrix(0.2811062303702457,0,0,0.2811062303702457,125.806409685207,89.8617212037193)"></circle><circle r="5" cx="175" cy="135" fill="#1a1a1a" transform="matrix(0.2665722785850372,0,0,0.2665722785850372,128.3498512476185,99.01274239101998)"></circle><circle r="5" cx="175" cy="145" fill="#1a1a1a" transform="matrix(0.2654016036617592,0,0,0.2654016036617592,128.55471935919215,106.51676746904491)"></circle><circle r="5" cx="175" cy="155" fill="#1a1a1a" transform="matrix(0.2667053923587243,0,0,0.2667053923587243,128.32655633722325,113.66066418439773)"></circle><circle r="5" cx="175" cy="165" fill="#1a1a1a" transform="matrix(0.26106127007065066,0,0,0.26106127007065066,129.31427773763613,121.92489043834264)"></circle><circle r="5" cx="175" cy="175" fill="#1a1a1a" transform="matrix(0.24916358780763476,0,0,0.24916358780763476,131.39637213366393,131.39637213366393)"></circle><circle r="5" cx="175" cy="185" fill="#1a1a1a" transform="matrix(0.2427868771693833,0,0,0.2427868771693833,132.51229649535793,140.0844392778194)"></circle><circle r="5" cx="175" cy="195" fill="#1a1a1a" transform="matrix(0.2493310142532743,0,0,0.2493310142532743,131.367072505677,146.38045222061152)"></circle><circle r="5" cx="185" cy="5" fill="#1a1a1a" transform="matrix(0.4065971823964045,0,0,0.4065971823964045,109.77953031127359,2.9670140880179776)"></circle><circle r="5" cx="185" cy="15" fill="#1a1a1a" transform="matrix(0.34580682526310924,0,0,0.34580682526310924,121.02574730852045,9.812897621053361)"></circle><circle r="5" cx="185" cy="25" fill="#1a1a1a" transform="matrix(0.3307261540572797,0,0,0.3307261540572797,123.8156717117117,16.731844872029455)"></circle><circle r="5" cx="185" cy="35" fill="#1a1a1a" transform="matrix(0.3635849645872906,0,0,0.3635849645872906,117.73679126227401,22.27452623944483)"></circle><circle r="5" cx="185" cy="45" fill="#1a1a1a" transform="matrix(0.4249283719564822,0,0,0.4249283719564822,106.38825996294746,25.8782232619583)"></circle><circle r="5" cx="185" cy="55" fill="#1a1a1a" transform="matrix(0.48263140810444916,0,0,0.48263140810444916,95.71319739509512,28.45527452785985)"></circle><circle r="5" cx="185" cy="65" fill="#1a1a1a" transform="matrix(0.5096320240090589,0,0,0.5096320240090589,90.71808304074561,31.87391843941117)"></circle><circle r="5" cx="185" cy="75" fill="#1a1a1a" transform="matrix(0.4987274888724281,0,0,0.4987274888724281,92.73542220741231,37.59543833456789)"></circle><circle r="5" cx="185" cy="85" fill="#1a1a1a" transform="matrix(0.4636300891551648,0,0,0.4636300891551648,99.22844169064984,45.591442421810996)"></circle><circle r="5" cx="185" cy="95" fill="#1a1a1a" transform="matrix(0.42056985359134713,0,0,0.42056985359134713,107.19458592700316,55.04586390882202)"></circle><circle r="5" cx="185" cy="105" fill="#1a1a1a" transform="matrix(0.3775068481401237,0,0,0.3775068481401237,115.16124259256881,65.36178094528701)"></circle><circle r="5" cx="185" cy="115" fill="#1a1a1a" transform="matrix(0.3382940975144123,0,0,0.3382940975144123,122.41560205666451,76.09617878584258)"></circle><circle r="5" cx="185" cy="125" fill="#1a1a1a" transform="matrix(0.3054336200229478,0,0,0.3054336200229478,128.49479089399654,86.82079749713152)"></circle><circle r="5" cx="185" cy="135" fill="#1a1a1a" transform="matrix(0.28086726247535376,0,0,0.28086726247535376,133.0395674151543,97.08291956582724)"></circle><circle r="5" cx="185" cy="145" fill="#1a1a1a" transform="matrix(0.26386019192864085,0,0,0.26386019192864085,136.1858757258035,106.74027217034708)"></circle><circle r="5" cx="185" cy="155" fill="#1a1a1a" transform="matrix(0.25021345882978724,0,0,0.25021345882978724,138.71052155732403,116.21691388138298)"></circle><circle r="5" cx="185" cy="165" fill="#1a1a1a" transform="matrix(0.23773471568628793,0,0,0.23773471568628793,141.01908922928192,125.7737719117625)"></circle><circle r="5" cx="185" cy="175" fill="#1a1a1a" transform="matrix(0.2313017603852098,0,0,0.2313017603852098,142.20918605814046,134.52219193258827)"></circle><circle r="5" cx="185" cy="185" fill="#1a1a1a" transform="matrix(0.23970211272982211,0,0,0.23970211272982211,140.655120746208,140.655120746208)"></circle><circle r="5" cx="185" cy="195" fill="#1a1a1a" transform="matrix(0.2614967374202863,0,0,0.2614967374202863,136.62311484591254,144.00813620304416)"></circle><circle r="5" cx="195" cy="5" fill="#1a1a1a" transform="matrix(0.48495174198056923,0,0,0.48495174198056923,100.434410313789,2.575241290097154)"></circle><circle r="5" cx="195" cy="15" fill="#1a1a1a" transform="matrix(0.42715881565473696,0,0,0.42715881565473696,111.70403094732629,8.592617765178947)"></circle><circle r="5" cx="195" cy="25" fill="#1a1a1a" transform="matrix(0.4049522197952623,0,0,0.4049522197952623,116.03431713992386,14.876193370154873)"></circle><circle r="5" cx="195" cy="35" fill="#1a1a1a" transform="matrix(0.41663348914405596,0,0,0.41663348914405596,113.75646961690909,20.41782787995804)"></circle><circle r="5" cx="195" cy="45" fill="#1a1a1a" transform="matrix(0.4471912982172114,0,0,0.4471912982172114,107.79769684764378,24.876391580225487)"></circle><circle r="5" cx="195" cy="55" fill="#1a1a1a" transform="matrix(0.47348456055143573,0,0,0.47348456055143573,102.67051069247003,28.95835117816804)"></circle><circle r="5" cx="195" cy="65" fill="#1a1a1a" transform="matrix(0.47764540068816375,0,0,0.47764540068816375,101.85914686580807,33.95304895526935)"></circle><circle r="5" cx="195" cy="75" fill="#1a1a1a" transform="matrix(0.4582496068279025,0,0,0.4582496068279025,105.64132666855902,40.631279487907314)"></circle><circle r="5" cx="195" cy="85" fill="#1a1a1a" transform="matrix(0.4288757703868368,0,0,0.4288757703868368,111.36922477456683,48.545559517118875)"></circle><circle r="5" cx="195" cy="95" fill="#1a1a1a" transform="matrix(0.40090740251920975,0,0,0.40090740251920975,116.82305650875409,56.913796760675076)"></circle><circle r="5" cx="195" cy="105" fill="#1a1a1a" transform="matrix(0.37706863239082716,0,0,0.37706863239082716,121.47161668378871,65.40779359896314)"></circle><circle r="5" cx="195" cy="115" fill="#1a1a1a" transform="matrix(0.3555313973646295,0,0,0.3555313973646295,125.67137751389724,74.11388930306761)"></circle><circle r="5" cx="195" cy="125" fill="#1a1a1a" transform="matrix(0.3329972785616648,0,0,0.3329972785616648,130.06553068047538,83.3753401797919)"></circle><circle r="5" cx="195" cy="135" fill="#1a1a1a" transform="matrix(0.3080872060726152,0,0,0.3080872060726152,134.92299481584004,93.40822718019695)"></circle><circle r="5" cx="195" cy="145" fill="#1a1a1a" transform="matrix(0.2831971897846751,0,0,0.2831971897846751,139.77654799198837,103.9364074812221)"></circle><circle r="5" cx="195" cy="155" fill="#1a1a1a" transform="matrix(0.2611072904844284,0,0,0.2611072904844284,144.08407835553646,114.5283699749136)"></circle><circle r="5" cx="195" cy="165" fill="#1a1a1a" transform="matrix(0.24534548043392457,0,0,0.24534548043392457,147.15763131538472,124.51799572840244)"></circle><circle r="5" cx="195" cy="175" fill="#1a1a1a" transform="matrix(0.24280277336880113,0,0,0.24280277336880113,147.6534591930838,132.50951466045979)"></circle><circle r="5" cx="195" cy="185" fill="#1a1a1a" transform="matrix(0.2573494354085322,0,0,0.2573494354085322,144.8168600953362,137.39036578136984)"></circle><circle r="5" cx="195" cy="195" fill="#1a1a1a" transform="matrix(0.2827648776489521,0,0,0.2827648776489521,139.86084885845435,139.86084885845435)"></circle></svg>