<svg id="visual" viewBox="0 0 960 540" width="960" height="540" xmlns="http://www.w3.org/2000/svg" xmlns:xlink="http://www.w3.org/1999/xlink" version="1.1"><path d="M0 141L22.8 150.2C45.7 159.3 91.3 177.7 137 188.3C182.7 199 228.3 202 274 187.7C319.7 173.3 365.3 141.7 411.2 136.2C457 130.7 503 151.3 548.8 152.8C594.7 154.3 640.3 136.7 686 136.3C731.7 136 777.3 153 823 170.2C868.7 187.3 914.3 204.7 937.2 213.3L960 222L960 541L937.2 541C914.3 541 868.7 541 823 541C777.3 541 731.7 541 686 541C640.3 541 594.7 541 548.8 541C503 541 457 541 411.2 541C365.3 541 319.7 541 274 541C228.3 541 182.7 541 137 541C91.3 541 45.7 541 22.8 541L0 541Z" fill="#fa7268"></path><path d="M0 194L22.8 195.3C45.7 196.7 91.3 199.3 137 202.5C182.7 205.7 228.3 209.3 274 216.8C319.7 224.3 365.3 235.7 411.2 231.3C457 227 503 207 548.8 201.5C594.7 196 640.3 205 686 220.5C731.7 236 777.3 258 823 266C868.7 274 914.3 268 937.2 265L960 262L960 541L937.2 541C914.3 541 868.7 541 823 541C777.3 541 731.7 541 686 541C640.3 541 594.7 541 548.8 541C503 541 457 541 411.2 541C365.3 541 319.7 541 274 541C228.3 541 182.7 541 137 541C91.3 541 45.7 541 22.8 541L0 541Z" fill="#ef5f67"></path><path d="M0 292L22.8 294C45.7 296 91.3 300 137 304.8C182.7 309.7 228.3 315.3 274 324.5C319.7 333.7 365.3 346.3 411.2 349.8C457 353.3 503 347.7 548.8 346.7C594.7 345.7 640.3 349.3 686 338.3C731.7 327.3 777.3 301.7 823 292.7C868.7 283.7 914.3 291.3 937.2 295.2L960 299L960 541L937.2 541C914.3 541 868.7 541 823 541C777.3 541 731.7 541 686 541C640.3 541 594.7 541 548.8 541C503 541 457 541 411.2 541C365.3 541 319.7 541 274 541C228.3 541 182.7 541 137 541C91.3 541 45.7 541 22.8 541L0 541Z" fill="#e34c67"></path><path d="M0 383L22.8 385.8C45.7 388.7 91.3 394.3 137 390.2C182.7 386 228.3 372 274 372C319.7 372 365.3 386 411.2 388.7C457 391.3 503 382.7 548.8 387C594.7 391.3 640.3 408.7 686 405.7C731.7 402.7 777.3 379.3 823 372.5C868.7 365.7 914.3 375.3 937.2 380.2L960 385L960 541L937.2 541C914.3 541 868.7 541 823 541C777.3 541 731.7 541 686 541C640.3 541 594.7 541 548.8 541C503 541 457 541 411.2 541C365.3 541 319.7 541 274 541C228.3 541 182.7 541 137 541C91.3 541 45.7 541 22.8 541L0 541Z" fill="#d53867"></path><path d="M0 460L22.8 453.8C45.7 447.7 91.3 435.3 137 439.8C182.7 444.3 228.3 465.7 274 468.2C319.7 470.7 365.3 454.3 411.2 452.8C457 451.3 503 464.7 548.8 461.7C594.7 458.7 640.3 439.3 686 438.3C731.7 437.3 777.3 454.7 823 464.2C868.7 473.7 914.3 475.3 937.2 476.2L960 477L960 541L937.2 541C914.3 541 868.7 541 823 541C777.3 541 731.7 541 686 541C640.3 541 594.7 541 548.8 541C503 541 457 541 411.2 541C365.3 541 319.7 541 274 541C228.3 541 182.7 541 137 541C91.3 541 45.7 541 22.8 541L0 541Z" fill="#c62368"></path></svg>